<svg id="Layer_1" data-name="Layer 1" xmlns="http://www.w3.org/2000/svg" viewBox="0 0 50 50"><defs><style>.cls-1{fill:#0d83dd}</style></defs><title>Reports Icons Master</title><path class="cls-1" d="M22.59 50a22.51 22.51 0 0 1-3.82-44.7 1.3 1.3 0 1 1 .44 2.56 19.91 19.91 0 1 0 23.36 18.72 1.3 1.3 0 0 1 1.24-1.36 1.32 1.32 0 0 1 1.37 1.24 22.55 22.55 0 0 1-18.74 23.21 22.78 22.78 0 0 1-3.85.33z"/><path class="cls-1" d="M33.09 14.78a3.46 3.46 0 0 0-1.37-2.29 3.48 3.48 0 1 0 .71 4.87 3.45 3.45 0 0 0 .66-2.58zM31 16.29a1.7 1.7 0 1 1-.35-2.38 1.7 1.7 0 0 1 .35 2.38z"/><path class="cls-1" d="M49.62 16.84A29.12 29.12 0 0 0 27.05 0a4.16 4.16 0 0 0-4.63 3.2 4 4 0 0 0 .82 3.43l-4.32 22.78a3.22 3.22 0 0 0 1.26 3.23 3.21 3.21 0 0 0 3.47.29l20.7-10.55a4 4 0 0 0 3.5-.21 4.11 4.11 0 0 0 1.77-5.33zm-16.71 6.41a2.13 2.13 0 0 1 1.75-.87 2.16 2.16 0 0 1 1.25.43 2.33 2.33 0 0 1 .74 1l-3.77 1.9a2.1 2.1 0 0 1 .03-2.46zm-1.62 3.28L22.66 31a1 1 0 0 1-1.15-.08 1 1 0 0 1-.37-1.05l.29-1.72a3.87 3.87 0 0 0 5.2-4.16 3.78 3.78 0 0 0-1.49-2.53 3.84 3.84 0 0 0-2.24-.76L25.24 8l.59.17a21.92 21.92 0 0 1 16.28 12.18l.32.5L38.25 23A4.21 4.21 0 0 0 37 21.39a3.94 3.94 0 0 0-5.51.79 3.87 3.87 0 0 0-.2 4.35zm-7.21-3.7a2.08 2.08 0 0 1-2.28 3.47l.73-3.84a1.93 1.93 0 0 1 1.54.37zm1.27-17.18a1.88 1.88 0 0 1 1.12-3.41h.29a26.79 26.79 0 0 1 12.39 5.12 26.38 26.38 0 0 1 8.44 10.43 1.9 1.9 0 0 1-.81 2.45 1.92 1.92 0 0 1-2-.14 1.75 1.75 0 0 1-.58-.74A24.26 24.26 0 0 0 26.18 6a1.74 1.74 0 0 1-.83-.35z"/></svg>