<svg id="Layer_1" xmlns="http://www.w3.org/2000/svg" viewBox="0 0 90 46.7"><style>.st0{fill:#fff}</style><path class="st0" d="M26.9 41c-.1-.7-.2-1.2-.8-1.2-.8 0-.9.8-.9 2.1 0 .5 0 1.9.9 1.9.7 0 .8-.7.8-1.2l1.1.1c-.1.7-.3 2.1-2 2.1s-2-1.7-2-2.9c0-1.3.3-2.9 2.1-2.9 1.6 0 1.8 1.4 1.9 2h-1.1zM29.9 37.1v7.5h-1.1v-7.5h1.1zM34.8 41.8c0 1.3-.3 3-2.1 3-1.7 0-2.1-1.5-2.1-2.9 0-1.3.4-2.9 2.1-2.9 1.7-.1 2.1 1.4 2.1 2.8zm-3.1 0c0 1.5.3 2 .9 2 .6 0 .9-.6.9-2.1 0-1.4-.3-2-.9-2-.6.1-.9.8-.9 2.1zM36.6 39v3.5c0 .8 0 1.2.6 1.2.9 0 .9-1.1.9-2.1V39h1.1v5.6h-1v-.8c-.2.4-.5 1-1.4 1-1.3 0-1.3-1.2-1.3-2.2V39h1.1zM44.1 37.1v7.5h-1v-.8c-.1.3-.4 1-1.3 1-1.5 0-1.8-1.8-1.8-2.9 0-1.9.8-2.9 1.8-2.9.8 0 1.1.5 1.2.7v-2.6h1.1zM43 41.3c0-.4 0-.7-.2-1.1-.1-.2-.4-.5-.7-.5-.8 0-.9 1.1-.9 2s.1 2.1.9 2.1c.3 0 .6-.2.7-.4.1-.2.2-.5.2-1.1v-1zM46.6 40.5c.2-1.4 1.5-1.6 2-1.6.8 0 1.2.3 1.5.6.3.4.3 1.1.3 1.7v1.9c0 .5 0 1.2.1 1.5h-1c-.1-.3-.1-.4-.1-.9-.2.4-.6 1.1-1.5 1.1s-1.5-.6-1.5-1.6c0-.9.5-1.5 1.1-1.7.5-.2 1-.2 1.8-.2V41c0-.4 0-1.2-.8-1.2-.7 0-.8.6-.9.9l-1-.2zm2.8 1.4h-.3c-1.3 0-1.4.7-1.4 1.2 0 .7.3.8.7.8.5 0 1.1-.5 1.1-1.7l-.1-.3zM54.1 41c-.1-.7-.2-1.2-.8-1.2-.8 0-.9.8-.9 2.1 0 .5 0 1.9.9 1.9.7 0 .8-.7.8-1.2l1.1.1c-.1.7-.3 2.1-2 2.1s-2-1.7-2-2.9c0-1.3.3-2.9 2.1-2.9 1.6 0 1.8 1.4 1.9 2h-1.1zM58.7 41c-.1-.7-.2-1.2-.8-1.2-.8 0-.9.8-.9 2.1 0 .5 0 1.9.9 1.9.7 0 .8-.7.8-1.2l1.1.1c-.1.7-.3 2.1-2 2.1s-2-1.7-2-2.9c0-1.3.3-2.9 2.1-2.9 1.6 0 1.8 1.4 1.9 2h-1.1zM64.6 41.8c0 1.3-.3 3-2.1 3-1.7 0-2.1-1.5-2.1-2.9 0-1.3.4-2.9 2.1-2.9 1.7-.1 2.1 1.4 2.1 2.8zm-3 0c0 1.5.3 2 .9 2 .6 0 .9-.6.9-2.1 0-1.4-.3-2-.9-2-.7.1-.9.8-.9 2.1zM66.4 39v3.5c0 .8 0 1.2.6 1.2.9 0 .9-1.1.9-2.1V39H69v5.6h-1v-.8c-.2.4-.5 1-1.4 1-1.3 0-1.3-1.2-1.3-2.2V39h1.1zM69.9 39h1v.9c.1-.3.4-1 1.3-1 .3 0 .9.1 1.2.7.2.3.2.9.2 1.4v3.6h-1.1v-3.5c0-.7 0-1.3-.6-1.3-.9 0-.9 1.1-.9 1.7v3.1h-1.1V39zM76.9 40h-1v2.5c0 1 0 1.3.7 1.3h.5v.9c-.2 0-.5.1-.8.1-1.5 0-1.5-1-1.5-2.2V40h-.7v-1h.7l.1-1.5 1-.1V39h1v1zM77.9 38.3v-1.2h1.2v1.2h-1.2zm1.1.7v5.6h-1.1V39H79zM80 39h1v.9c.1-.3.4-1 1.3-1 .3 0 .9.1 1.2.7.2.3.2.9.2 1.4v3.6h-1.1v-3.5c0-.7 0-1.3-.6-1.3-.9 0-.9 1.1-.9 1.7v3.1H80V39zM88.9 39h-.2c-.3 0-.5.1-.6.6.3.3.4.7.4 1.2 0 .9-.6 1.8-1.9 1.8-.3 0-.5 0-.7-.1-.2.1-.4.2-.4.5 0 .4.3.4 1.4.5 1 .1 2.1.1 2.1 1.5 0 1.5-1.4 1.7-2.4 1.7-.8 0-2.2-.1-2.2-1.4 0-.8.5-1 .8-1.1-.2-.1-.6-.4-.6-.9 0-.7.6-1 .8-1.1-.3-.2-.7-.5-.7-1.4 0-1.1.8-1.8 1.9-1.8.5 0 .8.1 1 .2.1-.4.2-1 1-1h.3v.8zm-3.5 6.1c0 .6.5.8 1.3.8.5 0 1.3-.1 1.3-.8 0-.5-.4-.6-.6-.6s-1.2-.1-1.5-.1c-.2.1-.5.2-.5.7zm.4-4.3c0 .2 0 1.1.8 1.1s.8-.9.8-1.1c0-.3 0-1.1-.7-1.1-.8 0-.9.6-.9 1.1zM0 17.1h7.8v3.6h-4v3.1h3.5v3.5H3.8V34H0V17.1zM8.1 19.9h3.7c1.5 0 2.7.4 3.6 1.2.9.8 1.3 1.8 1.3 3.2 0 .7-.2 1.3-.5 2-.3.6-.8 1.1-1.5 1.4l2.6 6.4H14l-2.6-6.4h-.1V34H8.1V19.9zm3.2 2.7V26c1.4 0 2.1-.5 2.1-1.5 0-.7-.2-1.1-.5-1.4-.3-.3-.8-.4-1.6-.5zM17.6 19.9h6.5v3h-3.3v2.6h2.8v2.9h-2.8V31h3.3v3h-6.5V19.9zM31 19.9h3.2v5.2H37v-5.2h3.2V34H37v-5.9h-2.8V34H31V19.9zM40.9 17.1h3.9c2.3 0 3.9.4 4.9 1.3s1.5 2 1.5 3.4c0 1.5-.7 2.7-2.2 3.6 1.6.6 2.5 1.9 2.5 3.7 0 1.5-.5 2.6-1.5 3.5-1 1-2.3 1.4-4 1.4h-5l-.1-16.9zm3.9 3.3V24c1.8 0 2.7-.6 2.7-1.8 0-.7-.2-1.2-.6-1.4-.5-.3-1.2-.4-2.1-.4zm0 6.7v3.7c1 0 1.7-.2 2.2-.5s.7-.8.7-1.4c0-1.2-.9-1.8-2.7-1.8h-.2zM57.1 34.4c-1.7 0-3-.7-3.9-2s-1.3-3.2-1.3-5.7c0-2.3.4-4.1 1.3-5.3.9-1.3 2.2-1.9 3.8-1.9 1.7 0 3 .6 3.9 1.9s1.4 3.1 1.4 5.5-.4 4.2-1.3 5.5c-1 1.3-2.3 2-3.9 2zm-.2-11.7c-1.2 0-1.7 1.4-1.7 4.1 0 1.7.1 2.9.4 3.5.3.6.7.9 1.3.9s1.1-.3 1.4-.9c.3-.6.5-1.7.5-3.4 0-2.8-.6-4.2-1.9-4.2zM67.6 34.4c-1.7 0-3-.7-3.9-2s-1.3-3.2-1.3-5.7c0-2.3.4-4.1 1.3-5.3.9-1.3 2.2-1.9 3.8-1.9 1.7 0 3 .6 3.9 1.9s1.4 3.1 1.4 5.5-.4 4.2-1.3 5.5-2.2 2-3.9 2zm-.1-11.7c-1.2 0-1.7 1.4-1.7 4.1 0 1.7.1 2.9.4 3.5s.7.9 1.3.9c.6 0 1.1-.3 1.4-.9s.5-1.7.5-3.4c0-2.8-.7-4.2-1.9-4.2zM73 19.9h3.2v6.6l3-6.6h3.4l-3.3 7.2 3.1 6.9H79l-2.7-5.9V34H73V19.9z"/><path class="st0" d="M82.8 33.8v-3.3c1 .6 1.9.9 2.6.9.4 0 .7-.1 1-.3.2-.2.3-.5.3-.9 0-.3-.1-.5-.3-.8-.2-.2-.5-.5-1-.9-1.1-.8-1.9-1.6-2.4-2.4-.5-.7-.7-1.5-.7-2.4 0-1.2.4-2.2 1.2-3 .8-.8 1.8-1.2 3-1.2.9 0 1.8.2 2.7.6v3.2c-1-.5-1.7-.8-2.3-.8-.4 0-.7.1-.9.3-.2.2-.3.5-.3.8 0 .6.5 1.3 1.6 2 .6.4 1.3 1.1 1.9 1.8.7.8 1 1.7 1 2.8 0 1.2-.4 2.2-1.3 3s-1.9 1.2-3.2 1.2c-1.1 0-2-.2-2.9-.6zM31.3 30.4l-3.2-4.6c-3.2-4.6 3.7-7.6 3.7-7.6l-.5-.5s-11.2 2.3-6.5 9l3.2 4.8c1.2 1.8-.6 2.8-1.7 2.8h-2v.9h1.6c2.5 0 8.3-.6 5.4-4.8zM78.5 3.1c-9.1-.3-11 9.4-11.4 12-.6.7-1.4 1.7-2.4 3.1-.4.6-.7.6-.7.6s.1 1 1.5.7c0 0 .8-2 2-3.6C90.1 18.1 90 0 90 0s-2.8 3.4-11.5 3.1zm-1 5.6c-4.8.5-9.2 5.7-9.2 5.7s4.3-6.6 9.5-7.1 8.4-3.1 8.4-3.1-3.2 4-8.7 4.5z"/></svg>