<svg data-name="Layer 1" xmlns="http://www.w3.org/2000/svg" viewBox="0 0 50 50"><path d="M48.12 42h-2.19v-3.63A1.89 1.89 0 0 0 44 36.48h-.4V18.19h5a1.2 1.2 0 0 0 .66-2.2L25.66.2a1.19 1.19 0 0 0-1.33 0L.78 16a1.2 1.2 0 0 0 .66 2.2h5v18.28H6a1.89 1.89 0 0 0-1.88 1.89V42H1.88A1.89 1.89 0 0 0 0 43.93v4.17A1.89 1.89 0 0 0 1.88 50h46.24A1.89 1.89 0 0 0 50 48.11v-4.18A1.89 1.89 0 0 0 48.12 42zm-18.86-5.52V18.19h5.82v18.29h-5.82zm-6.13-18.29h3.74v18.27h-3.74V18.19zm18.08 18.27h-3.74V18.19h3.74v18.27zM25 2.64l19.61 13.15H5.39zm-4.26 15.55v18.29h-5.82V18.19h5.82zm-12 0h3.74v18.29H8.79V18.22zM6.46 38.88h37.08V42H6.46v-3.12zm41.15 8.72H2.39v-3.16h45.22v3.16z" fill="#0d83dd"/></svg>