<svg width="150" height="150" viewBox="0 0 150 150" xmlns="http://www.w3.org/2000/svg"><title>Artboard</title><g fill="#0D83DD" fill-rule="evenodd"><path d="M129.515 84.65c0 30.325-24.713 54.999-55.088 54.999-30.38 0-55.092-24.674-55.092-55 0-30.324 24.713-54.995 55.092-54.995 30.375 0 55.088 24.671 55.088 54.996m-55.088 64.318c35.522 0 64.423-28.852 64.423-64.318 0-33.891-26.412-61.675-59.756-64.08V9.32h7.76a4.665 4.665 0 0 0 4.668-4.66A4.663 4.663 0 0 0 86.854 0H61.996a4.663 4.663 0 0 0-4.668 4.66 4.665 4.665 0 0 0 4.668 4.66h7.763v11.25C36.412 22.976 10 50.76 10 84.65c0 35.466 28.9 64.318 64.427 64.318z"/><path d="M69.758 52.289V84.65a4.665 4.665 0 0 0 4.667 4.66h20.263a4.665 4.665 0 0 0 4.667-4.66 4.665 4.665 0 0 0-4.667-4.66H79.092V52.29a4.665 4.665 0 0 0-4.667-4.66 4.665 4.665 0 0 0-4.667 4.66"/></g></svg>